<svg
  aria-hidden="true"
  xmlns="http://www.w3.org/2000/svg"
>
  <defs>
    <!-- Socials icons -->
    <symbol
      id="icon-instagram"
      viewBox="0 0 32 32"
    >
      <path
        d="M31.969 9.408c-.075-1.7-.35-2.869-.744-3.882a7.803 7.803 0 0 0-1.85-2.838A7.867 7.867 0 0 0 26.543.844C25.524.45 24.361.175 22.661.1 20.948.019 20.404 0 16.06 0s-4.888.019-6.595.094c-1.7.075-2.869.35-3.882.744a7.803 7.803 0 0 0-2.838 1.85A7.867 7.867 0 0 0 .901 5.52C.507 6.539.232 7.702.157 9.402c-.081 1.713-.1 2.257-.1 6.601s.019 4.888.094 6.595c.075 1.7.35 2.869.744 3.882a7.895 7.895 0 0 0 1.85 2.838 7.867 7.867 0 0 0 2.832 1.844c1.019.394 2.182.669 3.882.744 1.706.075 2.25.094 6.595.094s4.888-.019 6.595-.094c1.7-.075 2.869-.35 3.882-.744a8.184 8.184 0 0 0 4.682-4.682c.394-1.019.669-2.182.744-3.882.075-1.707.094-2.251.094-6.595s-.006-4.888-.081-6.595zm-2.882 13.065c-.069 1.563-.331 2.407-.55 2.969a5.31 5.31 0 0 1-3.038 3.038c-.563.219-1.413.481-2.969.55-1.688.075-2.194.094-6.464.094s-4.782-.019-6.464-.094c-1.563-.069-2.407-.331-2.969-.55a4.926 4.926 0 0 1-1.838-1.194 4.974 4.974 0 0 1-1.194-1.838c-.219-.563-.481-1.413-.55-2.969-.075-1.688-.094-2.194-.094-6.464s.019-4.782.094-6.464c.069-1.563.331-2.407.55-2.969a4.868 4.868 0 0 1 1.2-1.838A4.974 4.974 0 0 1 6.639 3.55c.563-.219 1.413-.481 2.969-.55 1.688-.075 2.194-.094 6.464-.094 4.276 0 4.782.019 6.464.094 1.563.069 2.407.331 2.969.55a4.914 4.914 0 0 1 1.838 1.194 4.974 4.974 0 0 1 1.194 1.838c.219.563.481 1.413.55 2.969.075 1.688.094 2.194.094 6.464s-.019 4.77-.094 6.458z"
      />
      <path
        d="M16.059 7.783c-4.538 0-8.22 3.682-8.22 8.22s3.682 8.22 8.22 8.22c4.539 0 8.22-3.682 8.22-8.22s-3.682-8.22-8.22-8.22zm0 13.552a5.333 5.333 0 0 1 0-10.664 5.333 5.333 0 0 1 0 10.664zM26.524 7.458a1.919 1.919 0 1 1-3.838 0 1.919 1.919 0 0 1 3.838 0z"
      />
    </symbol>
    <symbol
      id="icon-twitter"
      viewBox="0 0 32 32"
    >
      <path
        d="M32 6.078c-1.19.522-2.458.868-3.78 1.036a6.523 6.523 0 0 0 2.886-3.626 13.11 13.11 0 0 1-4.16 1.588A6.574 6.574 0 0 0 22.154 3c-3.632 0-6.556 2.948-6.556 6.562 0 .52.044 1.02.152 1.496-5.454-.266-10.28-2.88-13.522-6.862a6.605 6.605 0 0 0-.898 3.316 6.57 6.57 0 0 0 2.914 5.452 6.479 6.479 0 0 1-2.964-.808v.072c0 3.188 2.274 5.836 5.256 6.446a6.548 6.548 0 0 1-1.72.216 5.8 5.8 0 0 1-1.242-.112c.85 2.598 3.262 4.508 6.13 4.57a13.182 13.182 0 0 1-8.134 2.798c-.538 0-1.054-.024-1.57-.09A18.469 18.469 0 0 0 10.064 29c12.072 0 18.672-10 18.672-18.668 0-.29-.01-.57-.024-.848A13.087 13.087 0 0 0 32 6.078z"
      />
    </symbol>
    <symbol
      id="icon-facebook"
      viewBox="0 0 32 32"
    >
      <path
        d="M21.329 5.313h2.921V.225C23.746.156 22.013 0 19.994 0c-4.212 0-7.097 2.649-7.097 7.519V12H8.249v5.688h4.648V32h5.699V17.689h4.46l.708-5.688h-5.169V8.082c.001-1.644.444-2.769 2.735-2.769z"
      />
    </symbol>
    <symbol
      id="icon-linkedin"
      viewBox="0 0 32 32"
    >
      <path
        d="M31.992 32v-.001H32V20.263c0-5.741-1.236-10.164-7.948-10.164-3.227 0-5.392 1.771-6.276 3.449h-.093v-2.913h-6.364v21.364h6.627V21.42c0-2.785.528-5.479 3.977-5.479 3.399 0 3.449 3.179 3.449 5.657v10.401h6.62zM.528 10.636h6.635V32H.528V10.636zM3.843 0C1.722 0 0 1.721 0 3.843s1.721 3.879 3.843 3.879c2.121 0 3.843-1.757 3.843-3.879A3.846 3.846 0 0 0 3.843 0z"
      />
    </symbol>
    <!-- Contacts icons -->
    <symbol
      id="icon-map-pin"
      viewBox="0 0 24 24"
      fill="none"
    >
      <path
        fill-rule="evenodd"
        clip-rule="evenodd"
        d="M20 10.3636C20 16.0909 12 21 12 21C12 21 4 16.0909 4 10.3636C4 6.29681 7.58172 3 12 3C16.4183 3 20 6.29681 20 10.3636V10.3636Z"
        stroke="#9DA4BD"
        stroke-linecap="round"
        stroke-linejoin="round"
      />
      <path
        fill-rule="evenodd"
        clip-rule="evenodd"
        d="M12 14C13.6569 14 15 12.6569 15 11C15 9.34315 13.6569 8 12 8C10.3431 8 9 9.34315 9 11C9 12.6569 10.3431 14 12 14Z"
        stroke="#9DA4BD"
        stroke-linecap="round"
        stroke-linejoin="round"
      />
    </symbol>
    <symbol
      id="icon-phone"
      viewBox="0 0 24 24"
      fill="none"
    >
      <path
        fill-rule="evenodd"
        clip-rule="evenodd"
        d="M19.9996 16.0028V18.4163C20.0014 18.8693 19.8122 19.3021 19.4783 19.6084C19.1445 19.9147 18.697 20.066 18.2458 20.0252C15.7703 19.7562 13.3924 18.9103 11.3032 17.5555C9.35943 16.3203 7.71147 14.6724 6.47633 12.7286C5.11675 10.6299 4.27066 8.24046 4.0066 5.75383C3.96595 5.30403 4.11622 4.85785 4.42071 4.52429C4.7252 4.19073 5.15586 4.0005 5.6075 4.00008H8.02093C8.82851 3.99213 9.51685 4.5841 9.62988 5.38378C9.73174 6.15613 9.92065 6.91447 10.193 7.64435C10.414 8.23232 10.2727 8.89515 9.83099 9.34179L8.80931 10.3635C9.95453 12.3775 11.6221 14.0451 13.6362 15.1903L14.6578 14.1686C15.1045 13.727 15.7673 13.5856 16.3553 13.8066C17.0852 14.079 17.8435 14.2679 18.6159 14.3698C19.4248 14.4839 20.0198 15.1861 19.9996 16.0028Z"
        stroke="#9DA4BD"
        stroke-linecap="round"
        stroke-linejoin="round"
      />
    </symbol>
    <symbol
      id="icon-mail"
      viewBox="0 0 24 24"
      fill="none"
    >
      <path
        fill-rule="evenodd"
        clip-rule="evenodd"
        d="M4.8 5H19.2C20.19 5 21 5.7875 21 6.75V17.25C21 18.2125 20.19 19 19.2 19H4.8C3.81 19 3 18.2125 3 17.25V6.75C3 5.7875 3.81 5 4.8 5Z"
        stroke="#9DA4BD"
        stroke-linecap="round"
        stroke-linejoin="round"
      />
      <path
        d="M20 7L12 13L4 7"
        stroke="#9DA4BD"
        stroke-linecap="round"
        stroke-linejoin="round"
      />
    </symbol>
    <!-- Astronaut icon -->
    <symbol
      id="icon-astronaut"
      viewBox="0 0 32 32"
    >
      <path
        style="fill: var(--color3, #2196f3)"
        d="M31.974 4.524c-0.063-0.193-0.229-0.333-0.43-0.363l-1.91-0.278-0.855-1.731c-0.179-0.365-0.777-0.365-0.956 0l-0.855 1.731-1.91 0.278c-0.201 0.029-0.367 0.17-0.431 0.363-0.062 0.193-0.011 0.405 0.135 0.547l1.383 1.348-0.326 1.903c-0.034 0.2 0.048 0.402 0.212 0.522 0.166 0.121 0.382 0.135 0.562 0.040l1.709-0.899 1.709 0.899c0.078 0.041 0.164 0.061 0.249 0.061 0.11 0 0.221-0.034 0.314-0.102 0.164-0.119 0.246-0.322 0.212-0.522l-0.326-1.903 1.383-1.348c0.145-0.142 0.197-0.354 0.135-0.547zM29.511 5.851c-0.125 0.122-0.183 0.299-0.153 0.472l0.191 1.114-1-0.526c-0.078-0.041-0.163-0.061-0.249-0.061s-0.17 0.020-0.249 0.061l-1.001 0.526 0.191-1.114c0.030-0.173-0.028-0.349-0.153-0.472l-0.81-0.789 1.119-0.163c0.174-0.025 0.324-0.134 0.402-0.292l0.5-1.013 0.5 1.013c0.078 0.157 0.228 0.267 0.402 0.292l1.119 0.163-0.809 0.789z"
      ></path>
      <path
        style="fill: var(--color2, #2196f3)"
        d="M26.134 20.522h-1.067v1.067h1.067v-1.067z"
      ></path>
      <path
        style="fill: var(--color2, #2196f3)"
        d="M26.134 22.656h-1.067v1.067h1.067v-1.067z"
      ></path>
      <path
        style="fill: var(--color2, #2196f3)"
        d="M27.2 21.589h-1.067v1.067h1.067v-1.067z"
      ></path>
      <path
        style="fill: var(--color2, #2196f3)"
        d="M25.067 21.589h-1.067v1.067h1.067v-1.067z"
      ></path>
      <path
        style="fill: var(--color2, #2196f3)"
        d="M22.4 26.389h-1.067v1.067h1.067v-1.067z"
      ></path>
      <path
        style="fill: var(--color2, #2196f3)"
        d="M22.4 28.522h-1.067v1.067h1.067v-1.067z"
      ></path>
      <path
        style="fill: var(--color2, #2196f3)"
        d="M23.467 27.456h-1.067v1.067h1.067v-1.067z"
      ></path>
      <path
        style="fill: var(--color2, #2196f3)"
        d="M21.333 27.456h-1.067v1.067h1.067v-1.067z"
      ></path>
      <path
        style="fill: var(--color2, #2196f3)"
        d="M16 24.256h-1.067v1.067h1.067v-1.067z"
      ></path>
      <path
        style="fill: var(--color2, #2196f3)"
        d="M16 26.389h-1.067v1.067h1.067v-1.067z"
      ></path>
      <path
        style="fill: var(--color2, #2196f3)"
        d="M17.067 25.322h-1.067v1.067h1.067v-1.067z"
      ></path>
      <path
        style="fill: var(--color2, #2196f3)"
        d="M14.933 25.322h-1.067v1.067h1.067v-1.067z"
      ></path>
      <path
        style="fill: var(--color2, #2196f3)"
        d="M5.867 6.122h-1.067v1.067h1.067v-1.067z"
      ></path>
      <path
        style="fill: var(--color2, #2196f3)"
        d="M5.867 8.255h-1.067v1.067h1.067v-1.067z"
      ></path>
      <path
        style="fill: var(--color2, #2196f3)"
        d="M6.933 7.189h-1.067v1.067h1.067v-1.067z"
      ></path>
      <path
        style="fill: var(--color2, #2196f3)"
        d="M4.8 7.189h-1.067v1.067h1.067v-1.067z"
      ></path>
      <path
        style="fill: var(--color1, #212121)"
        d="M24.715 14.159c-0.287-0.388-0.709-0.637-1.188-0.705-0.481-0.068-0.956 0.058-1.34 0.352l-1.252 0.96-1.898 1.417-1.358-0.541c2.421-1.086 4.114-3.508 4.114-6.32 0-3.823-3.123-6.933-6.961-6.933s-6.961 3.11-6.961 6.933c0 1.386 0.414 2.674 1.12 3.758l-2.764-0.024c-0.002 0-0.003 0-0.005 0-0.009 0-0.015 0.004-0.023 0.005-0.053 0.002-0.105 0.013-0.155 0.031-0.013 0.005-0.026 0.008-0.038 0.013-0.006 0.003-0.013 0.003-0.019 0.006l-3.233 1.596c-0.001 0-0.001 0-0.001 0.001l-1.893 0.911c-0.021 0.009-0.042 0.021-0.063 0.035-0.755 0.502-1.012 1.489-0.598 2.295 0.22 0.429 0.595 0.745 1.056 0.889 0.178 0.055 0.359 0.083 0.539 0.083 0.29 0 0.577-0.071 0.839-0.211l1.388-0.738 2.264-1.169 1.357-0.008-5.442 5.416c-0.001 0.001-0.001 0.001-0.002 0.001l-1.339 1.333c-0.316 0.315-0.49 0.732-0.49 1.178s0.174 0.863 0.49 1.179c0.325 0.323 0.752 0.485 1.179 0.485s0.854-0.162 1.18-0.485l1.314-1.309 1.741-1.3 0.901 0.897-1.762 1.754c-0 0.001-0.001 0.001-0.002 0.001l-1.339 1.333c-0.316 0.315-0.49 0.732-0.49 1.178s0.174 0.863 0.49 1.179c0.325 0.323 0.753 0.485 1.18 0.485s0.855-0.162 1.18-0.485l3.482-3.467c0.001-0.001 0.001-0.001 0.001-0.002l1.010-1-0.004-0.004c0.006-0.006 0.015-0.009 0.022-0.015l5.166-5.658 3.471 0.494c0.025 0.004 0.050 0.005 0.075 0.005 0.065 0 0.127-0.015 0.187-0.038 0.018-0.006 0.033-0.015 0.050-0.023 0.019-0.010 0.039-0.015 0.058-0.027l3.213-2.133c0.012-0.008 0.018-0.021 0.029-0.029 0.013-0.010 0.029-0.014 0.041-0.026l1.271-1.191c0.662-0.62 0.753-1.635 0.212-2.362zM2.13 17.77c-0.173 0.093-0.37 0.111-0.558 0.052-0.187-0.058-0.338-0.186-0.427-0.358-0.161-0.314-0.068-0.695 0.214-0.902l1.314-0.632 0.449 1.312-0.992 0.528zM5.628 15.942l-1.548 0.8-0.439-1.283 2.027-1.001-0.040 1.484zM20.727 9.322c0 0.918-0.219 1.785-0.599 2.559l-4.181-1.899c-0.044-0.573-0.341-1.075-0.788-1.388l1.464-4.86c2.378 0.756 4.105 2.974 4.105 5.588zM8.938 9.322c0-3.235 2.644-5.867 5.894-5.867 0.253 0 0.5 0.021 0.745 0.052l-1.432 4.754c-0.019-0.001-0.037-0.006-0.057-0.006-1.033 0-1.873 0.837-1.873 1.867s0.84 1.867 1.873 1.867c0.694 0 1.294-0.383 1.618-0.945l3.862 1.755c-1.075 1.446-2.795 2.39-4.737 2.39-3.25 0-5.894-2.632-5.894-5.867zM14.894 10.122c0 0.441-0.362 0.8-0.806 0.8s-0.806-0.359-0.806-0.8c0-0.441 0.362-0.8 0.806-0.8s0.806 0.359 0.806 0.8zM2.465 25.146c-0.236 0.234-0.619 0.234-0.854 0.001-0.114-0.114-0.176-0.263-0.176-0.423s0.062-0.309 0.176-0.421l0.962-0.958 0.851 0.848-0.959 0.955zM5.679 28.88c-0.236 0.234-0.619 0.235-0.855 0.001-0.114-0.114-0.176-0.263-0.176-0.423s0.062-0.309 0.176-0.421l0.963-0.959 0.852 0.848-0.96 0.955zM9.16 25.411c-0.001 0-0.001 0-0.002 0.001l-1.765 1.76-0.852-0.848 1.763-1.755c0 0 0 0 0-0s0.001-0.001 0.002-0.001c0.040-0.040 0.065-0.088 0.090-0.135 0.007-0.014 0.020-0.026 0.026-0.040 0.017-0.041 0.019-0.085 0.026-0.129 0.003-0.025 0.014-0.047 0.014-0.073 0-0.036-0.013-0.070-0.020-0.106-0.006-0.032-0.006-0.065-0.019-0.095-0.020-0.050-0.055-0.094-0.091-0.138-0.010-0.012-0.014-0.027-0.025-0.038 0 0 0 0-0.001 0s-0.001-0.002-0.001-0.002l-1.607-1.6c-0.017-0.017-0.039-0.024-0.058-0.038-0.028-0.022-0.055-0.042-0.087-0.058-0.030-0.015-0.061-0.024-0.093-0.033-0.034-0.010-0.067-0.017-0.103-0.020-0.033-0.002-0.063 0.001-0.095 0.005-0.036 0.004-0.069 0.009-0.104 0.020-0.034 0.011-0.063 0.027-0.094 0.045-0.020 0.011-0.042 0.015-0.061 0.029l-1.773 1.324-0.901-0.897 2.399-2.386 4.361 4.289-0.928 0.919zM15.979 18.394c-0.015-0.002-0.030 0.004-0.045 0.003-0.039-0.002-0.076 0.001-0.115 0.007-0.030 0.005-0.059 0.011-0.088 0.021-0.034 0.012-0.065 0.028-0.097 0.047-0.030 0.018-0.057 0.037-0.083 0.061-0.013 0.011-0.028 0.017-0.040 0.029l-4.698 5.146-4.328-4.257 2.833-2.818c0.209-0.208 0.21-0.546 0.002-0.755-0.105-0.105-0.243-0.157-0.381-0.156v-0.001l-2.219 0.013 0.028-1.607 3.104 0.027c1.265 1.294 3.029 2.101 4.981 2.101 0.437 0 0.864-0.045 1.279-0.123 0.040 0.032 0.079 0.065 0.13 0.085l2.41 0.96 0.331 1.644-3.003-0.427zM20.020 18.572l-0.313-1.558 1.446-1.080 0.947 1.257-2.080 1.381zM23.774 15.741l-0.838 0.785-0.931-1.236 0.831-0.637c0.155-0.119 0.351-0.168 0.543-0.143 0.193 0.027 0.364 0.128 0.48 0.284 0.217 0.292 0.18 0.699-0.085 0.947z"
      ></path>
      <path
        style="fill: var(--color1, #212121)"
        d="M13.602 18.544l-2.143-2.133c-0.207-0.207-0.545-0.207-0.753 0l-2.142 2.133c-0.1 0.101-0.157 0.236-0.157 0.378s0.056 0.278 0.157 0.378l2.142 2.133c0.104 0.103 0.241 0.155 0.377 0.155s0.273-0.052 0.376-0.155l2.143-2.133c0.1-0.1 0.157-0.236 0.157-0.378s-0.057-0.278-0.157-0.378zM11.083 20.303l-1.387-1.381 1.387-1.381 1.387 1.381-1.387 1.381z"
      ></path>
      <path
        style="fill: var(--color1, #212121)"
        d="M17.164 5.071l-0.258 1.036c0.071 0.018 1.738 0.452 1.738 2.149h1.067c-0-2.017-1.666-2.965-2.547-3.185z"
      ></path>
      <path
        style="fill: var(--color1, #212121)"
        d="M19.711 9.322h-1.067v1.067h1.067v-1.067z"
      ></path>
    </symbol>

    <symbol
      id="icon-close"
      viewBox="0 0 18 18"
    >
      <path
        d="M15 4.10786L13.8921 3L9.5 7.39214L5.10786 3L4 4.10786L8.39214 8.5L4 12.8921L5.10786 14L9.5 9.60786L13.8921 14L15 12.8921L10.6079 8.5L15 4.10786Z"
      />
    </symbol>
    <!-- Form icons -->
    <symbol
      id="icon-user"
      viewBox="0 0 32 32"
    >
      <path
        d="M16 0c-8.838 0-16 7.162-16 16s7.162 16 16 16 16-7.163 16-16-7.163-16-16-16zM16 8c2.486 0 4.5 2.015 4.5 4.5s-2.012 4.5-4.5 4.5c-2.485 0-4.5-2.015-4.5-4.5s2.012-4.5 4.5-4.5zM16 28c-3.308 0-6.306-1.346-8.481-3.518 1.012-2.613 3.512-4.482 6.481-4.482h4c2.971 0 5.471 1.867 6.481 4.482-2.175 2.174-5.175 3.518-8.481 3.518z"
      ></path>
    </symbol>
    <symbol
      id="icon-phone"
      viewBox="0 0 24 32"
    >
      <path
        d="M20 0h-16c-1.657 0-3 1.343-3 3v26c0 1.656 1.343 3 3 3h16c1.657 0 3-1.343 3-3v-26c0-1.657-1.344-3-3-3zM12 29c-1.109 0-2-0.891-2-2s0.891-2 2-2 2 0.891 2 2-0.887 2-2 2z"
      ></path>
    </symbol>
    <symbol
      id="icon-mail"
      viewBox="0 0 40 32"
    >
      <path
        d="M11.994 28.038c-0.61 0-1.217-0.186-1.736-0.556l-8.258-6.219v8.738c0 1.101 0.899 2 2 2h16c1.101 0 2-0.899 2-2v-8.738l-8.238 6.206c-0.531 0.381-1.15 0.569-1.769 0.569zM12 12c0-2.203 1.797-4 4-4h14v-6c0-1.101-0.899-2-2-2h-20c-1.1 0-2 0.899-2 2v12h6v-2zM20 16h-16c-1.101 0-2 0.9-2 2v0.761l9.438 7.113c0.328 0.232 0.794 0.233 1.142-0.016l9.421-7.096v-0.762c0-1.1-0.9-2-2-2zM36 10h-20c-1.1 0-2 0.9-2 2v2h6c2.078 0 3.789 1.586 3.984 3.617l0.016 8.383h12c1.101 0 2-0.899 2-2v-12c0-1.1-0.9-2-2-2zM34 18h-4v-4h4v4z"
      ></path>
    </symbol>
    <symbol
      id="icon-mastercard"
      viewBox="0 0 36 32"
    >
      <path
        d="M30.181 25.644c0 0.425-0.288 0.731-0.7 0.731-0.425 0-0.7-0.325-0.7-0.731s0.275-0.731 0.7-0.731c0.413 0 0.7 0.325 0.7 0.731zM10.756 24.913c-0.444 0-0.7 0.325-0.7 0.731s0.256 0.731 0.7 0.731c0.406 0 0.681-0.306 0.681-0.731-0.006-0.406-0.275-0.731-0.681-0.731zM18.1 24.894c-0.337 0-0.544 0.219-0.594 0.544h1.194c-0.056-0.356-0.275-0.544-0.6-0.544zM24.837 24.913c-0.425 0-0.681 0.325-0.681 0.731s0.256 0.731 0.681 0.731c0.425 0 0.7-0.306 0.7-0.731 0-0.406-0.275-0.731-0.7-0.731zM31.456 26.544c0 0.019 0.019 0.031 0.019 0.069 0 0.019-0.019 0.031-0.019 0.069-0.019 0.019-0.019 0.031-0.031 0.050-0.019 0.019-0.031 0.031-0.069 0.031-0.019 0.019-0.031 0.019-0.069 0.019-0.019 0-0.031 0-0.069-0.019-0.019 0-0.031-0.019-0.050-0.031-0.019-0.019-0.031-0.031-0.031-0.050-0.019-0.031-0.019-0.050-0.019-0.069 0-0.031 0-0.050 0.019-0.069 0-0.031 0.019-0.050 0.031-0.069 0.019-0.019 0.031-0.019 0.050-0.031 0.031-0.019 0.050-0.019 0.069-0.019 0.031 0 0.050 0 0.069 0.019 0.031 0.019 0.050 0.019 0.069 0.031s0.012 0.038 0.031 0.069zM31.319 26.631c0.031 0 0.031-0.019 0.050-0.019 0.019-0.019 0.019-0.031 0.019-0.050s0-0.031-0.019-0.050c-0.019 0-0.031-0.019-0.069-0.019h-0.1v0.219h0.050v-0.087h0.019l0.069 0.087h0.050l-0.069-0.081zM36 5.063v22c0 1.656-1.344 3-3 3h-30c-1.656 0-3-1.344-3-3v-22c0-1.656 1.344-3 3-3h30c1.656 0 3 1.344 3 3zM4 13.787c0 4.781 3.881 8.656 8.656 8.656 1.7 0 3.369-0.512 4.781-1.444-4.556-3.706-4.525-10.7 0-14.406-1.413-0.938-3.081-1.444-4.781-1.444-4.775-0.006-8.656 3.875-8.656 8.637zM18 20.587c4.406-3.438 4.387-10.137 0-13.594-4.387 3.456-4.406 10.163 0 13.594zM9.106 25.356c0-0.544-0.356-0.9-0.919-0.919-0.287 0-0.594 0.087-0.8 0.406-0.15-0.256-0.406-0.406-0.763-0.406-0.237 0-0.475 0.087-0.662 0.337v-0.275h-0.513v2.294h0.513c0-1.181-0.156-1.887 0.563-1.887 0.638 0 0.513 0.637 0.513 1.887h0.494c0-1.144-0.156-1.887 0.562-1.887 0.637 0 0.512 0.625 0.512 1.887h0.512v-1.438zM11.912 24.5h-0.494v0.275c-0.169-0.206-0.406-0.337-0.731-0.337-0.644 0-1.137 0.512-1.137 1.206 0 0.7 0.494 1.206 1.137 1.206 0.325 0 0.563-0.119 0.731-0.337v0.288h0.494v-2.3zM14.444 26.1c0-0.938-1.431-0.512-1.431-0.95 0-0.356 0.744-0.3 1.156-0.069l0.206-0.406c-0.588-0.381-1.887-0.375-1.887 0.512 0 0.894 1.431 0.519 1.431 0.938 0 0.394-0.844 0.363-1.294 0.050l-0.219 0.394c0.7 0.475 2.037 0.375 2.037-0.469zM16.656 26.681l-0.137-0.425c-0.238 0.131-0.762 0.275-0.762-0.256v-1.038h0.819v-0.462h-0.819v-0.7h-0.512v0.7h-0.475v0.456h0.475v1.044c0 1.1 1.081 0.9 1.412 0.681zM17.488 25.844h1.719c0-1.012-0.462-1.413-1.087-1.413-0.663 0-1.137 0.494-1.137 1.206 0 1.281 1.413 1.494 2.113 0.887l-0.238-0.375c-0.488 0.4-1.225 0.363-1.369-0.306zM21.181 24.5c-0.288-0.125-0.725-0.113-0.95 0.275v-0.275h-0.512v2.294h0.512v-1.294c0-0.725 0.594-0.631 0.8-0.525l0.15-0.475zM21.844 25.644c0-0.712 0.725-0.944 1.294-0.525l0.238-0.406c-0.725-0.569-2.044-0.256-2.044 0.938 0 1.238 1.4 1.488 2.044 0.938l-0.238-0.406c-0.575 0.406-1.294 0.163-1.294-0.538zM26.012 24.5h-0.512v0.275c-0.519-0.688-1.869-0.3-1.869 0.869 0 1.2 1.4 1.544 1.869 0.869v0.288h0.512v-2.3zM28.119 24.5c-0.15-0.075-0.688-0.181-0.95 0.275v-0.275h-0.494v2.294h0.494v-1.294c0-0.688 0.563-0.644 0.8-0.525l0.15-0.475zM30.637 23.569h-0.494v1.206c-0.512-0.681-1.869-0.319-1.869 0.869 0 1.212 1.406 1.538 1.869 0.869v0.288h0.494v-3.231zM31.113 18.875v0.288h0.050v-0.288h0.119v-0.050h-0.288v0.050h0.119zM31.525 26.613c0-0.031 0-0.069-0.019-0.1-0.019-0.019-0.031-0.050-0.050-0.069s-0.050-0.031-0.069-0.050c-0.031 0-0.069-0.019-0.1-0.019-0.019 0-0.050 0.019-0.087 0.019-0.031 0.019-0.050 0.031-0.069 0.050-0.031 0.019-0.050 0.050-0.050 0.069-0.019 0.031-0.019 0.069-0.019 0.1 0 0.019 0 0.050 0.019 0.087 0 0.019 0.019 0.050 0.050 0.069 0.019 0.019 0.031 0.031 0.069 0.050 0.031 0.019 0.069 0.019 0.087 0.019 0.031 0 0.069 0 0.1-0.019 0.019-0.019 0.050-0.031 0.069-0.050s0.031-0.050 0.050-0.069c0.019-0.038 0.019-0.069 0.019-0.087zM31.725 18.819h-0.087l-0.1 0.219-0.1-0.219h-0.087v0.337h0.050v-0.256l0.1 0.219h0.069l0.087-0.219v0.256h0.069v-0.337zM32 13.787c0-4.763-3.881-8.644-8.656-8.644-1.7 0-3.369 0.513-4.781 1.444 4.506 3.706 4.575 10.719 0 14.406 1.413 0.938 3.094 1.444 4.781 1.444 4.775 0.006 8.656-3.869 8.656-8.65z"
      ></path>
    </symbol>
    <symbol
      id="icon-visa"
      viewBox="0 0 36 32"
    >
      <path
        d="M29.381 14.456s0.475 2.325 0.581 2.813h-2.087c0.206-0.556 1-2.719 1-2.719-0.012 0.019 0.206-0.569 0.331-0.931l0.175 0.838zM36 5v22c0 1.656-1.344 3-3 3h-30c-1.656 0-3-1.344-3-3v-22c0-1.656 1.344-3 3-3h30c1.656 0 3 1.344 3 3zM9.531 20.7l3.95-9.7h-2.656l-2.456 6.625-0.269-1.344-0.875-4.463c-0.144-0.619-0.588-0.794-1.138-0.819h-4.044l-0.044 0.194c0.988 0.25 1.869 0.613 2.638 1.069l2.237 8.438h2.656zM15.431 20.712l1.575-9.713h-2.512l-1.569 9.713h2.506zM24.175 17.538c0.012-1.106-0.663-1.95-2.106-2.644-0.881-0.444-1.419-0.744-1.419-1.2 0.012-0.412 0.456-0.838 1.444-0.838 0.819-0.019 1.419 0.175 1.869 0.369l0.225 0.106 0.344-2.1c-0.494-0.194-1.281-0.412-2.25-0.412-2.481 0-4.225 1.325-4.238 3.213-0.019 1.394 1.25 2.169 2.2 2.638 0.969 0.475 1.3 0.788 1.3 1.206-0.012 0.65-0.788 0.95-1.506 0.95-1 0-1.538-0.156-2.356-0.519l-0.331-0.156-0.35 2.181c0.587 0.269 1.675 0.506 2.8 0.519 2.637 0.006 4.356-1.3 4.375-3.313zM33 20.712l-2.025-9.713h-1.944c-0.6 0-1.056 0.175-1.313 0.806l-3.731 8.906h2.637s0.431-1.2 0.525-1.456h3.225c0.075 0.344 0.3 1.456 0.3 1.456h2.325z"
      ></path>
    </symbol>
    <symbol
      id="icon-success"
      viewBox="0 0 32 32"
    >
      <path
        d="M0 16c0-8.838 7.162-16 16-16s16 7.162 16 16c0 8.837-7.163 16-16 16s-16-7.163-16-16zM23.238 13.238c0.681-0.681 0.681-1.794 0-2.475s-1.794-0.681-2.475 0l-6.762 6.763-2.762-2.762c-0.681-0.681-1.794-0.681-2.475 0s-0.681 1.794 0 2.475l4 4c0.681 0.681 1.794 0.681 2.475 0l8-8z"
      ></path>
    </symbol>
    <symbol
      id="icon-attention"
      viewBox="0 0 32 32"
    >
      <path
        d="M16 0c-8.838 0-16 7.162-16 16s7.162 16 16 16 16-7.163 16-16-7.163-16-16-16zM14.5 9.5c0-0.825 0.675-1.5 1.5-1.5s1.5 0.672 1.5 1.5v8c0 0.828-0.672 1.5-1.5 1.5s-1.5-0.669-1.5-1.5v-8zM16 25c-1.085 0-1.965-0.88-1.965-1.965s0.879-1.965 1.965-1.965 1.965 0.88 1.965 1.965c-0.003 1.084-0.878 1.965-1.965 1.965z"
      ></path>
    </symbol>
    <symbol
      id="icon-check"
      viewBox="0 0 28 32"
    >
      <path
        d="M27.413 6.588c0.781 0.781 0.781 2.044 0 2.825l-16 16c-0.781 0.781-2.044 0.781-2.825 0l-8.002-8c-0.781-0.781-0.781-2.044 0-2.825s2.047-0.781 2.829 0l6.529 6.581 14.644-14.581c0.781-0.782 2.044-0.782 2.825 0v0z"
      ></path>
    </symbol>
    <symbol
      id="icon-lock"
      viewBox="0 0 28 32"
    >
      <path
        d="M5 12v-3c0-4.971 4.031-9 9-9s9 4.029 9 9v3h1c2.206 0 4 1.794 4 4v12c0 2.206-1.794 4-4 4h-20c-2.209 0-4-1.794-4-4v-12c0-2.206 1.791-4 4-4h1zM9 12h10v-3c0-2.761-2.238-5-5-5s-5 2.239-5 5v3z"
      ></path>
    </symbol>
    <symbol
      id="icon-unlock"
      viewBox="0 0 28 32"
    >
      <path
        d="M9 12h15c2.206 0 4 1.794 4 4v12c0 2.206-1.794 4-4 4h-20c-2.209 0-4-1.794-4-4v-12c0-2.206 1.791-4 4-4h1v-3c0-4.971 4.031-9 9-9 3.594 0 6.688 2.106 8.131 5.142 0.475 0.997 0.050 2.189-1 2.664-1 0.475-2.137 0.050-2.613-0.95-0.806-1.692-2.525-2.856-4.519-2.856-2.762 0-5 2.239-5 5v3z"
      ></path>
    </symbol>
  </defs>
</svg>
